<svg width="31" height="57" viewBox="0 0 31 57" fill="none" xmlns="http://www.w3.org/2000/svg">
<path d="M1.40028 26.5034C3.12555 38.8584 16.4123 54.7 16.4123 54.7C16.4123 54.7 27.5717 38.4794 29.0497 26.5034C29.6651 21.5165 29.3236 13.6368 29.3236 13.6368C29.5974 -4.15696 1.12618 -2.24037 1.12618 13.6368C1.12618 13.6368 0.705369 21.527 1.40028 26.5034Z" fill="#3C4B04" stroke="white" stroke-width="2"/>
<path d="M11.4255 39.7998L10.9316 39.8778L10.9983 40.2998H11.4255V39.7998ZM8.51664 23.4835L8.67455 23.0091L8.59766 22.9835H8.51664V23.4835ZM8.86646 21.8575L8.90805 22.3557L9.36646 22.3175L9.36646 21.8575H8.86646ZM22.3595 21.9154L21.8976 22.1068L21.9819 22.3102L22.1888 22.3854L22.3595 21.9154ZM22.5912 23.4254L22.7886 23.8848L22.8627 23.853L22.9231 23.7994L22.5912 23.4254ZM19.8586 39.7998V40.2998H20.2919L20.3535 39.8709L19.8586 39.7998ZM9.97149 24.9934L10.4685 24.9388L10.4684 24.9382L9.97149 24.9934ZM12.4723 39.2191L12.4575 39.7189H12.4575L12.4723 39.2191ZM19.1607 39.2191L19.6541 39.2998H19.6541L19.1607 39.2191ZM18.8699 24.9934L18.9386 25.4887L18.9879 25.4819L19.0348 25.4655L18.8699 24.9934ZM16.5435 24.9934L16.8436 24.5935L16.8152 24.5722L16.7842 24.5552L16.5435 24.9934ZM13.6355 24.9934L13.7462 25.481L13.7774 25.474L13.8074 25.463L13.6355 24.9934ZM11.8908 24.9934L12.1554 24.5693L12.0856 24.5257L12.0055 24.5068L11.8908 24.9934ZM10.1226 22.3805C10.1226 22.1044 9.89871 21.8805 9.62256 21.8805C9.34642 21.8805 9.12256 22.1044 9.12256 22.3805H9.62256H10.1226ZM12.1581 22.4386C12.1581 22.1625 11.9343 21.9386 11.6581 21.9386C11.382 21.9386 11.1581 22.1625 11.1581 22.4386H11.6581H12.1581ZM13.7866 22.4386C13.7866 22.1625 13.5628 21.9386 13.2866 21.9386C13.0105 21.9386 12.7866 22.1625 12.7866 22.4386H13.2866H13.7866ZM15.7631 22.4967C15.7631 22.2205 15.5393 21.9967 15.2631 21.9967C14.987 21.9967 14.7631 22.2205 14.7631 22.4967H15.2631H15.7631ZM18.2067 22.4386C18.2067 22.1625 17.9829 21.9386 17.7067 21.9386C17.4306 21.9386 17.2067 22.1625 17.2067 22.4386H17.7067H18.2067ZM19.9515 22.4386C19.9515 22.1625 19.7277 21.9386 19.4515 21.9386C19.1754 21.9386 18.9515 22.1625 18.9515 22.4386H19.4515H19.9515ZM22.0453 22.4386C22.0453 22.1625 21.8214 21.9386 21.5453 21.9386C21.2691 21.9386 21.0453 22.1625 21.0453 22.4386H21.5453H22.0453ZM19.277 11.7548L19.7657 11.8609L19.8481 11.4811L19.5004 11.3075L19.277 11.7548ZM17.7649 11L17.9882 10.5526L17.4158 10.2669L17.2768 10.8914L17.7649 11ZM11.4255 39.7998L11.9194 39.7218L9.36034 23.5219L8.86647 23.5999L8.37259 23.6779L10.9316 39.8778L11.4255 39.7998ZM8.86647 23.5999L9.02437 23.1255L8.67455 23.0091L8.51664 23.4835L8.35873 23.9579L8.70856 24.0743L8.86647 23.5999ZM8.51664 23.4835V22.9835C8.68454 22.9835 8.77863 23.084 8.8032 23.1169C8.82499 23.146 8.82014 23.1536 8.80955 23.1126C8.78979 23.0361 8.7784 22.9011 8.79533 22.7469C8.81236 22.5919 8.85268 22.4667 8.89684 22.3929C8.93766 22.3247 8.94529 22.3526 8.90805 22.3557L8.86646 21.8575L8.82488 21.3592C8.43826 21.3914 8.18375 21.6372 8.0388 21.8793C7.8972 22.1159 7.82813 22.3936 7.80131 22.6378C7.77439 22.8828 7.7847 23.1434 7.84132 23.3626C7.86892 23.4695 7.91595 23.6 8.00192 23.7152C8.09068 23.834 8.26126 23.9835 8.51664 23.9835V23.4835ZM8.86646 21.8575H9.36646C9.36646 21.0457 9.87442 20.1419 10.8077 19.3493C11.7305 18.5656 13.0082 17.9474 14.3931 17.6975C15.7752 17.4482 17.2396 17.5695 18.5546 18.23C19.8634 18.8875 21.0655 20.0994 21.8976 22.1068L22.3595 21.9154L22.8214 21.7239C21.9087 19.522 20.5517 18.1141 19.0034 17.3364C17.4614 16.5619 15.7706 16.4329 14.2156 16.7134C12.6635 16.9934 11.2223 17.6852 10.1604 18.5871C9.10894 19.48 8.36646 20.6373 8.36646 21.8574L8.86646 21.8575ZM22.3595 21.9154L22.1888 22.3854C22.1753 22.3804 22.2022 22.3874 22.2462 22.4472C22.287 22.5029 22.3243 22.5807 22.3447 22.668C22.3867 22.8481 22.3439 22.9764 22.2593 23.0515L22.5912 23.4254L22.9231 23.7994C23.362 23.4099 23.4165 22.8606 23.3185 22.4406C23.2688 22.2278 23.1767 22.0249 23.0523 21.8554C22.931 21.6902 22.7569 21.5278 22.5301 21.4454L22.3595 21.9154ZM22.5912 23.4254L22.3939 22.966L21.9876 23.1405L22.185 23.5999L22.3823 24.0593L22.7886 23.8848L22.5912 23.4254ZM22.185 23.5999L21.6901 23.5289L19.3637 39.7287L19.8586 39.7998L20.3535 39.8709L22.6799 23.671L22.185 23.5999ZM19.8586 39.7998V39.2998H11.4255V39.7998V40.2998H19.8586V39.7998ZM9.97149 24.9934L9.47449 25.0481C9.75619 27.6084 10.2077 31.1682 10.677 34.0938C10.9113 35.5548 11.1518 36.8682 11.3795 37.8223C11.4927 38.2963 11.6069 38.7001 11.7216 38.9935C11.7778 39.1373 11.8438 39.2801 11.9237 39.396C11.9638 39.4542 12.02 39.5241 12.0962 39.5841C12.1733 39.6446 12.2961 39.7141 12.4575 39.7189L12.4723 39.2191L12.4871 38.7193C12.6049 38.7228 12.683 38.7733 12.7143 38.798C12.7449 38.8219 12.7543 38.839 12.7468 38.8282C12.7316 38.806 12.6987 38.7464 12.653 38.6295C12.5639 38.4016 12.4623 38.0515 12.3522 37.5901C12.1333 36.6733 11.8976 35.3896 11.6644 33.9354C11.1985 31.0308 10.749 27.4881 10.4685 24.9388L9.97149 24.9934ZM12.4723 39.2191L12.4575 39.7189C13.4389 39.748 15.1077 39.7916 16.536 39.8061C17.2492 39.8133 17.908 39.8134 18.3927 39.8005C18.6332 39.7941 18.8413 39.7842 18.9948 39.769C19.0685 39.7617 19.1483 39.7515 19.2184 39.7348C19.2503 39.7272 19.3074 39.7121 19.3677 39.6821C19.3979 39.667 19.4495 39.6381 19.5014 39.5886C19.5539 39.5384 19.6307 39.4432 19.6541 39.2998L19.1607 39.2191L18.6672 39.1384C18.6898 39.0005 18.7634 38.9106 18.8105 38.8656C18.857 38.8211 18.901 38.7973 18.9215 38.7871C18.9446 38.7756 18.9627 38.7693 18.9709 38.7666C18.9801 38.7636 18.9857 38.7622 18.9865 38.7621C18.9875 38.7618 18.9808 38.7634 18.9633 38.7659C18.9467 38.7684 18.9246 38.7711 18.8963 38.7739C18.7797 38.7854 18.6007 38.7946 18.366 38.8008C17.9003 38.8133 17.2565 38.8134 16.5462 38.8061C15.1276 38.7917 13.4664 38.7484 12.4871 38.7193L12.4723 39.2191ZM19.1607 39.2191L19.6541 39.2998C20.0428 36.9231 20.5523 33.4346 20.9644 30.5065C21.1705 29.0419 21.3524 27.7161 21.4829 26.7378C21.5481 26.2488 21.6005 25.8458 21.6368 25.5554C21.6549 25.4103 21.6691 25.2919 21.6789 25.2043C21.6867 25.1338 21.6963 25.0465 21.6963 24.9934H21.1963H20.6963C20.6963 24.9766 20.696 24.9951 20.685 25.0935C20.676 25.1747 20.6623 25.2882 20.6445 25.4316C20.6087 25.718 20.5567 26.1178 20.4916 26.6056C20.3616 27.581 20.18 28.9043 19.9742 30.3672C19.5623 33.2939 19.054 36.7733 18.6672 39.1384L19.1607 39.2191ZM21.1963 24.9934H21.6963C21.6963 24.9391 21.7039 24.7379 21.6122 24.5435C21.4995 24.3044 21.2849 24.1525 21.0151 24.0919C20.7727 24.0375 20.4767 24.0525 20.1235 24.1181C19.7622 24.1852 19.2997 24.3136 18.705 24.5214L18.8699 24.9934L19.0348 25.4655C19.6033 25.2668 20.0132 25.1557 20.3062 25.1013C20.6073 25.0453 20.7474 25.0567 20.7959 25.0676C20.8168 25.0723 20.7476 25.0547 20.7077 24.9698C20.6887 24.9296 20.6963 24.9027 20.6963 24.9934H21.1963ZM18.8699 24.9934L18.8012 24.4982C18.4726 24.5437 17.9684 24.5858 17.5215 24.5951C17.2976 24.5997 17.0999 24.5958 16.9515 24.5824C16.8767 24.5757 16.8254 24.5675 16.7946 24.5603C16.7496 24.5499 16.7866 24.5507 16.8436 24.5935L16.5435 24.9934L16.2434 25.3934C16.3584 25.4796 16.4897 25.5161 16.5682 25.5344C16.6608 25.5559 16.7621 25.5694 16.8618 25.5784C17.0622 25.5965 17.3008 25.5998 17.5423 25.5948C18.0261 25.5848 18.5693 25.5399 18.9386 25.4887L18.8699 24.9934ZM16.5435 24.9934L16.7842 24.5552C16.2687 24.2721 14.9938 23.9638 13.4637 24.5239L13.6355 24.9934L13.8074 25.463C15.0689 25.0012 16.0429 25.2889 16.3029 25.4317L16.5435 24.9934ZM13.6355 24.9934L13.5249 24.5058C13.3335 24.5493 13.0195 24.6023 12.7176 24.6175C12.5669 24.6251 12.4316 24.6225 12.3224 24.6089C12.2684 24.6021 12.2267 24.5934 12.1962 24.5844C12.1649 24.5752 12.1538 24.5682 12.1554 24.5693L11.8908 24.9934L11.6261 25.4176C11.8085 25.5315 12.0206 25.579 12.1985 25.6012C12.3847 25.6244 12.5823 25.6255 12.7679 25.6162C13.1388 25.5975 13.511 25.5344 13.7462 25.481L13.6355 24.9934ZM11.8908 24.9934L12.0055 24.5068C11.6639 24.4263 11.1441 24.3268 10.7028 24.2972C10.4906 24.2829 10.2499 24.2809 10.0481 24.3279C9.9497 24.3509 9.80595 24.3973 9.68284 24.5068C9.53465 24.6386 9.45062 24.8333 9.47455 25.0487L9.97149 24.9934L10.4684 24.9382C10.482 25.0607 10.4297 25.1808 10.3475 25.254C10.2903 25.3048 10.2468 25.3084 10.275 25.3019C10.3266 25.2898 10.4451 25.2821 10.6357 25.2949C11.0002 25.3194 11.4607 25.4058 11.7761 25.4801L11.8908 24.9934ZM8.86649 21.858V22.358H22.4177V21.858V21.358H8.86649V21.858ZM9.62256 22.3805H9.12256V23.0773H9.62256H10.1226V22.3805H9.62256ZM11.6581 22.4386H11.1581V23.1354H11.6581H12.1581V22.4386H11.6581ZM13.2866 22.4386H12.7866V23.1354H13.2866H13.7866V22.4386H13.2866ZM15.2631 22.4967H14.7631V23.1934H15.2631H15.7631V22.4967H15.2631ZM17.7067 22.4386H17.2067V23.1354H17.7067H18.2067V22.4386H17.7067ZM19.4515 22.4386H18.9515V23.1354H19.4515H19.9515V22.4386H19.4515ZM21.5453 22.4386H21.0453V23.1354H21.5453H22.0453V22.4386H21.5453ZM8.86647 23.5999V24.0999H22.185V23.5999V23.0999H8.86647V23.5999ZM14.9142 23.658L14.4261 23.5493L14.1935 24.5945L14.6815 24.7031L15.1696 24.8117L15.4022 23.7666L14.9142 23.658ZM16.6599 23.5418L16.1762 23.4151L15.8263 24.7506L16.31 24.8773L16.7937 25.004L17.1435 23.6685L16.6599 23.5418ZM16.718 23.5418L17.2066 23.6479L19.7657 11.8609L19.277 11.7548L18.7884 11.6488L16.2294 23.4357L16.718 23.5418ZM19.277 11.7548L19.5004 11.3075L17.9882 10.5526L17.7649 11L17.5416 11.4474L19.0537 12.2022L19.277 11.7548ZM17.7649 11L17.2768 10.8914L14.4852 23.4332L14.9732 23.5418L15.4613 23.6505L18.253 11.1086L17.7649 11Z" fill="#F2B3E1"/>
</svg>
