<svg width="176" height="24" viewBox="0 0 176 24" fill="none" xmlns="http://www.w3.org/2000/svg">
<path d="M25.7071 23.3867V1.03857H35.1826V4.07793H28.9252V10.693H34.4674V13.5535H28.9252L28.8483 20.087H35.2555V23.3867H25.7071Z" fill="#FFBBEA" stroke="#FFBBEA"/>
<path d="M15.6957 1.03857H12.2988V23.3867H15.5169V13.4977H19.6289V23.3867H22.6682L22.847 1.03857H19.6289V10.655H15.6957V1.03857Z" fill="#FFBBEA" stroke="#FFBBEA"/>
<path d="M0.5 4.07841V1.0391L11.0481 1.03906V4.07841H7.47249L7.38812 23.2946H4.12965V4.07841H0.5Z" fill="#FFBBEA" stroke="#FFBBEA"/>
<path d="M45.1973 0.859863V23.0293H48.4153V9.62035L51.6334 19.096H53.2425L56.4605 9.62035L56.2817 23.0293H59.6786V0.859863H56.4605L52.3485 12.4809L48.4153 0.859863H45.1973Z" fill="#FFBBEA" stroke="#FFBBEA"/>
<path d="M102.942 0.681152H99.5449V23.0293H102.763V13.1403H106.875V23.0293H109.914L110.093 0.681152H106.875V10.2976H102.942V0.681152Z" fill="#FFBBEA" stroke="#FFBBEA"/>
<path d="M74.5156 3.89978V0.860394L85.0638 0.860429V3.89978H81.4881L81.4037 23.1159H78.1453V3.89978H74.5156Z" fill="#FFBBEA" stroke="#FFBBEA"/>
<path fill-rule="evenodd" clip-rule="evenodd" d="M62.8945 4.61466V23.0296H65.9338V18.3811H69.867V23.0296H73.0851C73.0851 23.0296 73.0596 7.83273 72.9063 4.61466C72.7531 1.39659 69.3903 0.443003 68.0792 0.502598C64.3605 0.502598 62.8945 3.00566 62.8945 4.61466ZM65.9338 5.32979C65.9338 3.18437 69.867 3.18437 69.867 5.32979V15.163H65.9338V5.32979Z" fill="#FFBBEA" stroke="#FFBBEA"/>
<path fill-rule="evenodd" clip-rule="evenodd" d="M113.131 4.79581V23.2107H116.17V18.5623H120.103V23.2107H123.321C123.321 23.2107 123.296 8.01389 123.143 4.79581C122.989 1.57774 119.627 0.624155 118.316 0.68375C114.597 0.68375 113.131 3.18681 113.131 4.79581ZM116.17 5.51094V15.3441H120.103V5.51094C120.103 3.36552 116.17 3.36552 116.17 5.51094Z" fill="#FFBBEA"/>
<path d="M113.131 4.79581V23.2107M113.131 4.79581C113.131 3.18681 114.597 0.68375 118.316 0.68375C119.627 0.624155 122.989 1.57774 123.143 4.79581C123.296 8.01389 123.321 23.2107 123.321 23.2107H120.103V18.5623H116.17V23.2107H113.131M113.131 4.79581C113.131 6.40482 113.131 23.2107 113.131 23.2107M116.17 5.51094V15.3441M116.17 5.51094C116.17 3.36552 120.103 3.36552 120.103 5.51094M116.17 5.51094C116.17 7.65637 116.17 15.3441 116.17 15.3441M116.17 15.3441H120.103M120.103 15.3441V5.51094M120.103 15.3441C120.103 15.3441 120.103 7.65637 120.103 5.51094" stroke="#FFBBEA"/>
<path d="M96.8644 7.11916L93.6463 7.11783V5.50863C93.6463 3.36334 89.8919 3.18458 89.8919 5.50863V18.56C89.8919 20.7053 93.6463 20.5267 93.6463 18.5603V16.7723L96.8644 16.7722C97.1028 18.8581 96.5426 23.0655 92.3948 23.2085C89.5343 23.3886 86.6738 22.1371 86.6738 18.9176V4.97373C86.6738 1.75427 89.5343 0.502747 92.3948 0.682884C96.5426 0.825912 97.1028 5.03333 96.8644 7.11916Z" fill="#FFBBEA"/>
<path d="M86.6738 18.919V4.97373C86.6738 1.75427 89.5343 0.502747 92.3948 0.682884C96.5426 0.825912 97.1028 5.03333 96.8644 7.11916L93.6463 7.11783V5.50863C93.6463 3.36334 89.8919 3.18458 89.8919 5.50863V18.56C89.8919 20.7053 93.6463 20.5267 93.6463 18.5603V16.7723L96.8644 16.7722C97.1028 18.8581 96.5426 23.0655 92.3948 23.2085C89.5343 23.3886 86.6738 22.1371 86.6738 18.9176" stroke="#FFBBEA"/>
<path d="M165.951 23.0293V0.681152H175.427V3.7205H169.169V10.3356H174.711V13.1961H169.169L169.092 19.7296H175.5V23.0293H165.951Z" fill="#FFBBEA" stroke="#FFBBEA"/>
<path fill-rule="evenodd" clip-rule="evenodd" d="M133.156 22.8506V0.502452H139.491C144.674 0.50514 144.955 9.97822 141.38 11.0508V11.2296C145.313 13.0174 144.318 22.8506 139.491 22.8506H133.156ZM136.374 3.54179V9.6205H138.52C141.023 9.6205 141.38 3.54179 138.52 3.54179H136.374ZM136.374 12.4811V19.6325H138.698C141.201 19.6325 141.38 12.4811 138.52 12.4811H136.374Z" fill="#FFBBEA"/>
<path d="M139.491 0.502452H133.156V22.8506H139.491C144.318 22.8506 145.313 13.0174 141.38 11.2296V11.0508M139.491 0.502452C144.674 0.50514 144.955 9.97822 141.38 11.0508M139.491 0.502452C144.676 0.502452 144.956 9.97807 141.38 11.0508M139.491 0.502452L139.312 0.502441M136.374 9.6205V3.54179H138.52C141.38 3.54179 141.023 9.6205 138.52 9.6205H136.374ZM136.374 19.6325V12.4811H138.52C141.38 12.4811 141.201 19.6325 138.698 19.6325H136.374Z" stroke="#FFBBEA"/>
<path d="M149.324 0.681152H146.285L146.464 22.6718H149.324V0.681152Z" fill="#FFBBEA" stroke="#FFBBEA"/>
<path d="M155.761 0.681152H152.543L152.543 22.8505H155.761V16.0567L157.549 13.0173L160.946 22.8505H164.521L159.337 9.44164L163.627 0.681152H160.409L155.761 10.7433V0.681152Z" fill="#FFBBEA" stroke="#FFBBEA"/>
</svg>
