<svg xmlns="http://www.w3.org/2000/svg" version="1.1" xmlns:xlink="http://www.w3.org/1999/xlink" width="50" height="50"><svg width="50" height="50" viewBox="0 0 50 50" fill="none" xmlns="http://www.w3.org/2000/svg">
<circle cx="25" cy="25" r="25" fill="#3C4B04"></circle>
<path d="M28.9626 15.9015C29.6745 15.9015 29.6745 15.2801 28.8789 15.2801C27.776 15.1282 25.4531 14.8742 24.9841 15.073C24.5514 15.3354 24.0963 16.0756 25.5704 17.2687L24.9841 19.6301C18.2835 18.5115 7.56255 19.6301 6.43183 20.4587C6.22248 20.583 5.76177 21.0801 6.64113 21.0801C9.87976 20.2792 18.7493 19.0247 25.4834 20.4167L26.1986 17.6001C26.3242 17.3515 26.2991 16.6638 25.1935 15.9015C25.0605 15.8286 25.3118 15.5701 25.4029 15.5701L28.9626 15.9015Z" fill="#FFBBEA"></path>
<path fill-rule="evenodd" clip-rule="evenodd" d="M19.0447 30.94L19.1483 30.2456C19.158 30.1193 19.163 29.9917 19.163 29.8629C19.163 28.0024 18.1299 26.3807 16.6002 25.5283C14.922 24.7349 12.7535 24.8298 11.1733 25.848C9.92366 26.7524 9.11207 28.2139 9.11207 29.8629C9.11207 32.6085 11.362 34.8343 14.1375 34.8343C16.2784 34.8343 18.1066 33.51 18.8307 31.6443C18.8327 31.6393 18.8346 31.6342 18.8366 31.6292C18.9221 31.4067 18.9919 31.1765 19.0447 30.94ZM9.99152 29.6141C10.3684 25.6786 16.936 23.8242 18.1996 29.6141H14.8075C14.7238 28.9515 13.4256 28.9515 13.2579 29.6141L9.99152 29.6141ZM9.94964 30.2771C10.0753 34.0472 16.9779 36.0041 18.1996 30.2771H14.8076C14.7239 30.9397 13.4257 30.9397 13.2581 30.2771L9.94964 30.2771Z" fill="#FFBBEA"></path>
<path fill-rule="evenodd" clip-rule="evenodd" d="M19.1483 30.2456L22.262 30.2772L22.1364 30.94H19.0447C18.9919 31.1765 18.9221 31.4067 18.8366 31.6292C18.8346 31.6342 18.8327 31.6393 18.8307 31.6443H22.6389L23.0577 30.1943H28.7951C28.7393 30.6915 28.8453 31.752 29.7164 32.0172L29.3395 33.0529C28.7951 33.1357 28.6695 33.6329 29.3395 33.6743L30.3446 33.7157C30.6796 33.7572 30.8053 33.2285 30.3446 33.0529H30.0515L30.3446 32.3072C31.0785 32.3072 32.622 32.2365 33.0742 31.9575C32.7471 31.2719 32.5642 30.5056 32.5642 29.6972C32.5642 26.7685 34.9642 24.3944 37.9247 24.3944C39.202 24.3944 40.3749 24.8363 41.2958 25.574C42.5093 26.5462 43.2852 28.0321 43.2852 29.6972C43.3968 29.8353 43.7291 29.8629 43.9971 29.5315C44.039 28.5096 43.6453 26.1343 41.7356 24.8086L42.1125 24.2701C42.7826 24.3529 43.3689 23.6072 42.2801 23.4415L42.0288 22.6958H36.2495L34.9931 23.5243L34.4487 22.8201L34.8675 21.5358H35.9564C36.082 21.6462 36.4003 21.7926 36.6683 21.4943V20.9972C36.9335 20.6382 37.2881 19.9201 36.5845 19.9201L33.3599 19.9615C32.8155 19.9201 32.1621 20.5995 33.4018 20.8315L34.365 21.1629L31.7685 27.3357L24.0209 26.1757L23.8953 26.8801L31.3916 27.9572V28.3715C30.152 28.2058 29.2278 29.1034 28.9207 29.5729H23.1833L23.8953 26.8801L24.0209 26.1757L25.3247 21.0417C20.1875 20.6826 8.68492 20.2681 6.3062 21.9915V23.4829H5.00796C4.98004 23.8005 5.00795 24.1458 5.38487 24.1458C5.45466 24.5463 5.79527 25.3472 6.59934 25.3472C6.83665 26.9905 7.44529 30.2689 7.98134 30.2357L8.31637 29.6143C8.69328 22.5302 19.7493 22.613 19.7493 29.6143H19.1568C19.1568 27.5908 18.0654 26.221 16.6002 25.5283C18.1299 26.3807 19.163 28.0024 19.163 29.8629C19.163 29.9917 19.158 30.1193 19.1483 30.2456ZM34.0299 23.5244L34.5325 24.3115L33.2342 25.5129L34.0299 23.5244ZM35.8307 23.7828L36.3678 23.2857L41.5681 23.3586C41.5821 23.6486 41.543 24.2535 41.275 24.3529L39.3412 23.7828H35.8307ZM31.9779 30.3186C31.9779 30.9821 31.4341 31.52 30.7634 31.52C30.0927 31.52 29.5489 30.9821 29.5489 30.3186C29.5489 29.6551 30.0927 29.1172 30.7634 29.1172C31.4341 29.1172 31.9779 29.6551 31.9779 30.3186Z" fill="#FFBBEA"></path>
<path d="M9.11824 29.6143H8.31637L7.98134 30.2357H9.12599C9.11676 30.1127 9.11207 29.9883 9.11207 29.8629C9.11207 29.7795 9.11414 29.6966 9.11824 29.6143Z" fill="#FFBBEA"></path>
<path fill-rule="evenodd" clip-rule="evenodd" d="M40.9399 26.0101L41.2958 25.574C40.3749 24.8363 39.202 24.3944 37.9247 24.3944C34.9642 24.3944 32.5642 26.7685 32.5642 29.6972C32.5642 30.5056 32.7471 31.2719 33.0742 31.9575C33.9319 33.7557 35.7814 35 37.9247 35C40.8852 35 43.2852 32.6258 43.2852 29.6972C40.4374 37.0813 34.427 33.7157 33.9043 31.7686L37.2965 31.2301C37.3244 30.7882 37.4054 29.9541 37.5059 30.1529C37.9526 30.2358 38.8041 30.1363 38.6366 29.0758C38.7483 28.8686 39.0973 28.4543 39.5998 28.4543C40.8562 28.4543 42.8831 27.9655 40.9399 26.0101ZM40.4793 26.5072C41.0097 26.8662 41.6268 27.6258 39.8511 27.7915H39.5998L40.4793 26.5072ZM40.4374 25.3886L38.2178 28.5371C38.148 28.6476 37.9498 28.8023 37.7153 28.5371L35.8307 25.2229C36.5147 24.7257 38.3937 24.0629 40.4374 25.3886ZM35.2371 25.5228L34.1452 26.25H36.0323L35.2371 25.5228ZM33.5161 27.7083L33.2342 28.33L36.8777 28.3715L36.6613 27.7083H33.5161Z" fill="#FFBBEA"></path>
<path d="M19.1483 30.2456L22.262 30.2772L22.1364 30.94H19.0447M19.1483 30.2456L19.0447 30.94M19.1483 30.2456C19.1301 30.4821 19.0952 30.714 19.0447 30.94M19.1483 30.2456C19.158 30.1193 19.163 29.9917 19.163 29.8629M19.0447 30.94C18.9919 31.1765 18.9221 31.4067 18.8366 31.6292M8.31637 29.6143H9.11824M8.31637 29.6143C8.69328 22.5302 19.7493 22.613 19.7493 29.6143H19.1568C19.1568 27.5908 18.0654 26.221 16.6002 25.5283M8.31637 29.6143L7.98134 30.2357M9.11824 29.6143C9.2128 27.8487 10.0094 26.5979 11.1733 25.848M9.11824 29.6143L9.12599 30.2357M9.11824 29.6143C9.11414 29.6966 9.11207 29.7795 9.11207 29.8629M19.163 29.8629C19.163 28.0024 18.1299 26.3807 16.6002 25.5283M19.163 29.8629C19.163 30.4849 19.0475 31.0803 18.8366 31.6292M14.1375 34.8343C11.362 34.8343 9.11207 32.6085 9.11207 29.8629M14.1375 34.8343C16.2784 34.8343 18.1066 33.51 18.8307 31.6443M14.1375 34.8343C16.2842 34.8343 18.1165 33.5028 18.8366 31.6292M9.11207 29.8629C9.11207 28.2139 9.92366 26.7524 11.1733 25.848M9.11207 29.8629C9.11207 29.9883 9.11676 30.1127 9.12599 30.2357M43.2852 29.6972C43.2852 28.0321 42.5093 26.5462 41.2958 25.574M43.2852 29.6972C40.4374 37.0813 34.427 33.7157 33.9043 31.7686L37.2965 31.2301C37.3244 30.7882 37.4054 29.9541 37.5059 30.1529C37.9526 30.2358 38.8041 30.1363 38.6366 29.0758C38.7483 28.8686 39.0973 28.4543 39.5998 28.4543C40.8562 28.4543 42.8831 27.9655 40.9399 26.0101L41.2958 25.574M43.2852 29.6972C43.2852 32.6258 40.8852 35 37.9247 35C35.7814 35 33.9319 33.7557 33.0742 31.9575M43.2852 29.6972C43.3968 29.8353 43.7291 29.8629 43.9971 29.5315C44.039 28.5096 43.6453 26.1343 41.7356 24.8086L42.1125 24.2701C42.7826 24.3529 43.3689 23.6072 42.2801 23.4415L42.0288 22.6958H36.2495L34.9931 23.5243L34.4487 22.8201L34.8675 21.5358H35.9564C36.082 21.6462 36.4003 21.7926 36.6683 21.4943V20.9972C36.9335 20.6382 37.2881 19.9201 36.5845 19.9201L33.3599 19.9615C32.8155 19.9201 32.1621 20.5995 33.4017 20.8315L34.365 21.1629L31.7685 27.3357L24.0209 26.1757M41.2958 25.574C40.3749 24.8363 39.202 24.3944 37.9247 24.3944C34.9642 24.3944 32.5642 26.7685 32.5642 29.6972C32.5642 30.5056 32.7471 31.2719 33.0742 31.9575M33.0742 31.9575C32.622 32.2365 31.0785 32.3072 30.3446 32.3072L30.0515 33.0529M33.0742 31.9575C33.0865 31.9499 33.0635 31.9654 33.0742 31.9575ZM23.8953 26.8801L23.1833 29.5729H28.9207C29.2278 29.1034 30.152 28.2058 31.3916 28.3715V27.9572L23.8953 26.8801ZM23.8953 26.8801L24.0209 26.1757M25.4834 20.4167C18.7493 19.0247 9.87976 20.2792 6.64113 21.0801C5.76177 21.0801 6.22248 20.583 6.43183 20.4587C7.56255 19.6301 18.2835 18.5115 24.9841 19.6301L25.5704 17.2687C24.0963 16.0756 24.5514 15.3354 24.9841 15.073C25.4531 14.8742 27.776 15.1282 28.8789 15.2801C29.6745 15.2801 29.6745 15.9015 28.9626 15.9015L25.4029 15.5701C25.3118 15.5701 25.0605 15.8286 25.1935 15.9015C26.2991 16.6638 26.3242 17.3515 26.1986 17.6001M25.4834 20.4167L25.3247 21.0417M25.4834 20.4167L26.1986 17.6001M25.3247 21.0417C20.1875 20.6826 8.68492 20.2681 6.3062 21.9915V23.4829H5.00796C4.98004 23.8005 5.00795 24.1458 5.38487 24.1458C5.45466 24.5463 5.79527 25.3472 6.59934 25.3472C6.83665 26.9905 7.44529 30.2689 7.98134 30.2357M25.3247 21.0417L24.0209 26.1757M7.98134 30.2357H9.12599M18.8307 31.6443H22.6389L23.0577 30.1943H28.7951C28.7393 30.6915 28.8453 31.752 29.7164 32.0172L29.3395 33.0529C28.7951 33.1357 28.6695 33.6329 29.3395 33.6743L30.3446 33.7157C30.6796 33.7572 30.8053 33.2285 30.3446 33.0529M18.8307 31.6443C18.8327 31.6393 18.8346 31.6342 18.8366 31.6292M30.3446 33.0529C30.1697 33.0529 30.1697 33.0529 30.0515 33.0529M30.3446 33.0529H30.0515M24.0209 26.1757L26.1986 17.6001M16.6002 25.5283C15.8725 25.1228 15.0323 24.8915 14.1375 24.8915C13.029 24.8915 12.0043 25.2466 11.1733 25.848M16.6002 25.5283C14.922 24.7349 12.7535 24.8298 11.1733 25.848M39.8511 27.7915C41.6268 27.6258 41.0097 26.8662 40.4793 26.5072L39.5998 27.7915H39.8511ZM38.2178 28.5371L40.4374 25.3886C38.3937 24.0629 36.5148 24.7257 35.8307 25.2229L37.7153 28.5371C37.9498 28.8023 38.148 28.6476 38.2178 28.5371ZM34.1452 26.25L35.2371 25.5228L36.0323 26.25H34.1452ZM33.2342 28.33L33.5161 27.7083H36.6613L36.8777 28.3715L33.2342 28.33ZM18.1996 29.6141C16.936 23.8242 10.3684 25.6786 9.99152 29.6141L13.2579 29.6141C13.4256 28.9515 14.7238 28.9515 14.8075 29.6141H18.1996ZM18.1996 30.2771C16.9779 36.0041 10.0753 34.0472 9.94964 30.2771L13.2581 30.2771C13.4257 30.9397 14.7239 30.9397 14.8076 30.2771H18.1996ZM30.219 30.9816L30.554 30.2359C30.5959 30.1115 31.1822 30.2357 31.0984 30.5259L30.8053 31.2302L30.219 30.9816ZM34.5325 24.3115L34.0299 23.5244L33.2342 25.5129L34.5325 24.3115ZM36.3678 23.2857L35.8307 23.7828H39.3412L41.275 24.3529C41.543 24.2535 41.5821 23.6486 41.5681 23.3586L36.3678 23.2857ZM30.7634 31.52C31.4341 31.52 31.9779 30.9821 31.9779 30.3186C31.9779 29.6551 31.4341 29.1172 30.7634 29.1172C30.0927 29.1172 29.5489 29.6551 29.5489 30.3186C29.5489 30.9821 30.0927 31.52 30.7634 31.52Z" stroke="#FFBBEA" stroke-width="0.5"></path>
</svg><style>@media (prefers-color-scheme: light) { :root { filter: none; } }
@media (prefers-color-scheme: dark) { :root { filter: none; } }
</style></svg>