<svg width="66" height="35" viewBox="0 0 66 35" fill="none" xmlns="http://www.w3.org/2000/svg">
<path d="M39.8563 1.99022C41.0256 1.99022 41.0256 0.963056 39.7187 0.963056C37.9075 0.711959 34.0923 0.291981 33.322 0.620689C32.6112 1.05439 31.8638 2.27789 34.285 4.25014L33.322 8.15356C22.3169 6.30457 4.70875 8.15356 2.85164 9.52318C2.50781 9.72862 1.75113 10.5504 3.1954 10.5504C8.51454 9.22644 23.0818 7.15279 34.142 9.45375L35.3167 4.79794C35.523 4.38706 35.4818 3.25027 33.6659 1.99022C33.4475 1.86962 33.8602 1.44237 34.0098 1.44237L39.8563 1.99022Z" fill="#818C58"/>
<path fill-rule="evenodd" clip-rule="evenodd" d="M23.5671 26.8489L23.7372 25.701C23.7532 25.4922 23.7613 25.2812 23.7613 25.0684C23.7613 21.993 22.0646 19.3122 19.5523 17.9033C16.7959 16.5918 13.2343 16.7487 10.639 18.4317C8.58664 19.9267 7.25368 22.3426 7.25368 25.0684C7.25368 29.6069 10.949 33.2861 15.5075 33.2861C19.0237 33.2861 22.0263 31.097 23.2156 28.013C23.2188 28.0047 23.222 27.9964 23.2252 27.988C23.3657 27.6202 23.4803 27.2398 23.5671 26.8489ZM8.6981 24.6572C9.31713 18.1518 20.1038 15.0864 22.1791 24.6571H16.6078C16.4704 23.5618 14.3382 23.5618 14.0629 24.6571L8.6981 24.6572ZM8.62931 25.753C8.83566 31.985 20.1726 35.2199 22.1791 25.753H16.608C16.4706 26.8484 14.3384 26.8484 14.0631 25.753L8.62931 25.753Z" fill="#818C58"/>
<path fill-rule="evenodd" clip-rule="evenodd" d="M23.7372 25.701L28.8512 25.7532L28.6448 26.8489H23.5671C23.4803 27.2398 23.3657 27.6202 23.2252 27.988C23.222 27.9964 23.2188 28.0047 23.2156 28.013H29.4702L30.158 25.6162H39.5812C39.4894 26.438 39.6637 28.1911 41.0944 28.6294L40.4753 30.3414C39.5812 30.4784 39.3748 31.3001 40.4753 31.3686L42.1261 31.4371C42.6763 31.5056 42.8827 30.6316 42.1261 30.3414H41.6446L42.1261 29.1087C43.3314 29.1087 45.8665 28.9919 46.6091 28.5308C46.0719 27.3974 45.7715 26.1308 45.7715 24.7944C45.7715 19.9533 49.7132 16.0289 54.5756 16.0289C56.6734 16.0289 58.5999 16.7594 60.1123 17.9788C62.1055 19.5858 63.3797 22.042 63.3797 24.7944C63.5631 25.0227 64.1088 25.0684 64.549 24.5205C64.6178 22.8313 63.9712 18.9051 60.8347 16.7137L61.4538 15.8234C62.5543 15.9604 63.5172 14.7277 61.7289 14.4538L61.3162 13.2211H51.8243L49.7609 14.5907L48.8667 13.4265L49.5545 11.3036H51.3428C51.5492 11.4863 52.0719 11.7282 52.5121 11.2352V10.4134C52.9477 9.81988 53.5301 8.63288 52.3746 8.63288L47.0784 8.70136C46.1842 8.63288 45.1112 9.75596 47.1471 10.1395L48.7291 10.6873L44.4647 20.891L31.74 18.9735L31.5337 20.1377L43.8456 21.9182V22.603C41.8097 22.3291 40.2919 23.8129 39.7875 24.589H30.3644L31.5337 20.1377L31.74 18.9735L33.8813 10.4869C25.4441 9.89337 6.55212 9.20817 2.64531 12.057V14.5223H0.513073C0.467219 15.0473 0.513051 15.618 1.13211 15.618C1.24674 16.28 1.80615 17.6039 3.12676 17.6039C3.51653 20.3203 4.51616 25.7395 5.39657 25.6847L5.94682 24.6574C6.56586 12.9474 24.7243 13.0843 24.7243 24.6574H23.7512C23.7512 21.3125 21.9586 19.0484 19.5523 17.9033C22.0646 19.3122 23.7613 21.993 23.7613 25.0684C23.7613 25.2812 23.7532 25.4922 23.7372 25.701ZM48.1789 14.5908L49.0043 15.8919L46.872 17.8779L48.1789 14.5908ZM51.1365 15.018L52.0186 14.1962L60.5596 14.3168C60.5825 14.7962 60.5184 15.796 60.0781 15.9604L56.9021 15.018H51.1365ZM44.8086 25.8216C44.8086 26.9185 43.9155 27.8076 42.8139 27.8076C41.7123 27.8076 40.8192 26.9185 40.8192 25.8216C40.8192 24.7248 41.7123 23.8357 42.8139 23.8357C43.9155 23.8357 44.8086 24.7248 44.8086 25.8216Z" fill="#818C58"/>
<path d="M7.26382 24.6574H5.94682L5.39657 25.6847H7.27654C7.26139 25.4812 7.25368 25.2757 7.25368 25.0684C7.25368 24.9306 7.25708 24.7935 7.26382 24.6574Z" fill="#818C58"/>
<path fill-rule="evenodd" clip-rule="evenodd" d="M59.5279 18.6996L60.1123 17.9788C58.5999 16.7594 56.6734 16.0289 54.5756 16.0289C49.7132 16.0289 45.7715 19.9533 45.7715 24.7944C45.7715 26.1308 46.0719 27.3974 46.6091 28.5308C48.0179 31.5032 51.0555 33.56 54.5756 33.56C59.2132 33.56 63.868 29.481 64.2094 24.9506C63.865 24.9506 63.3797 25.0182 63.3797 24.7944C58.7025 37.0004 48.831 31.4371 47.9725 28.2185L53.5439 27.3283C53.5897 26.5978 53.7227 25.2191 53.8878 25.5478C54.6215 25.6847 56.02 25.5203 55.7449 23.7672C55.9283 23.4248 56.5015 22.74 57.3269 22.74C59.3903 22.74 62.7194 21.9319 59.5279 18.6996ZM58.7713 19.5214C59.6425 20.1149 60.6559 21.3704 57.7396 21.6443H57.3269L58.7713 19.5214ZM58.7025 17.6724L55.0571 22.8769C54.9424 23.0595 54.6169 23.3152 54.2317 22.8769L51.1365 17.3984C52.2599 16.5767 55.346 15.481 58.7025 17.6724ZM50.1615 17.8942L48.3681 19.0963H51.4675L50.1615 17.8942ZM47.335 21.5069L46.872 22.5346L52.8561 22.603L52.5006 21.5069H47.335Z" fill="#818C58"/>
<path d="M23.7372 25.701L28.8512 25.7532L28.6448 26.8489H23.5671M23.7372 25.701L23.5671 26.8489M23.7372 25.701C23.7073 26.0919 23.65 26.4752 23.5671 26.8489M23.7372 25.701C23.7532 25.4922 23.7613 25.2812 23.7613 25.0684M23.5671 26.8489C23.4803 27.2398 23.3657 27.6202 23.2252 27.988M5.94682 24.6574H7.26382M5.94682 24.6574C6.56586 12.9474 24.7243 13.0843 24.7243 24.6574H23.7512C23.7512 21.3125 21.9586 19.0484 19.5523 17.9033M5.94682 24.6574L5.39657 25.6847M7.26382 24.6574C7.41912 21.7389 8.7275 19.6714 10.639 18.4317M7.26382 24.6574L7.27654 25.6847M7.26382 24.6574C7.25708 24.7935 7.25368 24.9306 7.25368 25.0684M23.7613 25.0684C23.7613 21.993 22.0646 19.3122 19.5523 17.9033M23.7613 25.0684C23.7613 26.0966 23.5716 27.0808 23.2252 27.988M15.5075 33.2861C10.949 33.2861 7.25368 29.6069 7.25368 25.0684M15.5075 33.2861C19.0237 33.2861 22.0263 31.097 23.2156 28.013M15.5075 33.2861C19.0332 33.2861 22.0426 31.0852 23.2252 27.988M7.25368 25.0684C7.25368 22.3426 8.58664 19.9267 10.639 18.4317M7.25368 25.0684C7.25368 25.2757 7.26139 25.4812 7.27654 25.6847M63.3797 24.7944C63.3797 22.042 62.1055 19.5858 60.1123 17.9788M63.3797 24.7944C58.7025 37.0004 48.831 31.4371 47.9725 28.2185L53.5439 27.3283C53.5897 26.5978 53.7227 25.2191 53.8878 25.5478C54.6215 25.6847 56.02 25.5203 55.7449 23.7672C55.9283 23.4248 56.5015 22.74 57.3269 22.74C59.3903 22.74 62.7194 21.9319 59.5279 18.6996L60.1123 17.9788M63.3797 24.7944C63.5631 25.0227 64.1088 25.0684 64.549 24.5205C64.6178 22.8313 63.9712 18.9051 60.8347 16.7137L61.4538 15.8234C62.5543 15.9604 63.5172 14.7277 61.7289 14.4538L61.3162 13.2211H51.8243L49.7609 14.5907L48.8667 13.4265L49.5545 11.3036H51.3428C51.5492 11.4863 52.0719 11.7282 52.5121 11.2352V10.4134C52.9477 9.81988 53.5301 8.63288 52.3746 8.63288L47.0784 8.70136C46.1842 8.63288 45.1112 9.75596 47.1471 10.1395L48.7291 10.6873L44.4647 20.891L31.74 18.9735M63.3797 24.7944C63.3797 25.0182 63.865 24.9506 64.2094 24.9506C63.868 29.481 59.2132 33.56 54.5756 33.56C51.0555 33.56 48.0179 31.5032 46.6091 28.5308M60.1123 17.9788C58.5999 16.7594 56.6734 16.0289 54.5756 16.0289C49.7132 16.0289 45.7715 19.9533 45.7715 24.7944C45.7715 26.1308 46.0719 27.3974 46.6091 28.5308M46.6091 28.5308C45.8665 28.9919 43.3314 29.1087 42.1261 29.1087L41.6446 30.3414M46.6091 28.5308C46.6293 28.5183 46.5916 28.5439 46.6091 28.5308ZM31.5337 20.1377L30.3644 24.589H39.7875C40.2919 23.8129 41.8097 22.3291 43.8456 22.603V21.9182L31.5337 20.1377ZM31.5337 20.1377L31.74 18.9735M34.142 9.45375C23.0818 7.15279 8.51454 9.22644 3.1954 10.5504C1.75113 10.5504 2.50781 9.72862 2.85164 9.52318C4.70875 8.15356 22.3169 6.30457 33.322 8.15356L34.285 4.25014C31.8638 2.27789 32.6112 1.05439 33.322 0.620689C34.0923 0.291981 37.9075 0.711959 39.7187 0.963056C41.0256 0.963056 41.0256 1.99022 39.8563 1.99022L34.0098 1.44237C33.8602 1.44237 33.4475 1.86962 33.6659 1.99022C35.4818 3.25027 35.523 4.38706 35.3167 4.79794M34.142 9.45375L33.8813 10.4869M34.142 9.45375L35.3167 4.79794M33.8813 10.4869C25.4441 9.89337 6.55212 9.20816 2.64531 12.057V14.5223H0.513073C0.467219 15.0473 0.513051 15.618 1.13211 15.618C1.24674 16.28 1.80615 17.6039 3.12676 17.6039C3.51653 20.3203 4.51616 25.7395 5.39657 25.6847M33.8813 10.4869L31.74 18.9735M5.39657 25.6847H7.27654M23.2156 28.013H29.4702L30.158 25.6162H39.5812C39.4894 26.438 39.6637 28.1911 41.0944 28.6294L40.4753 30.3414C39.5812 30.4784 39.3748 31.3001 40.4753 31.3686L42.1261 31.4371C42.6763 31.5056 42.8827 30.6316 42.1261 30.3414M23.2156 28.013C23.2188 28.0047 23.222 27.9964 23.2252 27.988M42.1261 30.3414C41.8389 30.3414 41.8389 30.3414 41.6446 30.3414M42.1261 30.3414H41.6446M31.74 18.9735L35.3167 4.79794M19.5523 17.9033C18.357 17.233 16.9771 16.8506 15.5075 16.8506C13.6868 16.8506 12.0038 17.4376 10.639 18.4317M19.5523 17.9033C16.7959 16.5918 13.2343 16.7487 10.639 18.4317M57.7396 21.6443C60.6559 21.3704 59.6425 20.1149 58.7713 19.5214L57.3269 21.6443H57.7396ZM55.0571 22.8769L58.7025 17.6724C55.346 15.481 52.2599 16.5767 51.1365 17.3984L54.2317 22.8769C54.6169 23.3152 54.9424 23.0595 55.0571 22.8769ZM48.3681 19.0963L50.1615 17.8942L51.4675 19.0963H48.3681ZM46.872 22.5346L47.335 21.5069H52.5006L52.8561 22.603L46.872 22.5346ZM22.1791 24.6571C20.1038 15.0864 9.31713 18.1518 8.6981 24.6572L14.0629 24.6571C14.3382 23.5618 16.4704 23.5618 16.6078 24.6571H22.1791ZM22.1791 25.753C20.1726 35.2199 8.83566 31.985 8.62931 25.753L14.0631 25.753C14.3384 26.8484 16.4706 26.8484 16.608 25.753H22.1791ZM41.9197 26.9176L42.47 25.6849C42.5388 25.4794 43.5017 25.6847 43.3642 26.1643L42.8827 27.3285L41.9197 26.9176ZM49.0043 15.8919L48.1789 14.5908L46.872 17.8779L49.0043 15.8919ZM52.0186 14.1962L51.1365 15.018H56.9021L60.0781 15.9604C60.5184 15.796 60.5825 14.7962 60.5596 14.3168L52.0186 14.1962ZM42.8139 27.8076C43.9155 27.8076 44.8086 26.9185 44.8086 25.8217C44.8086 24.7248 43.9155 23.8357 42.8139 23.8357C41.7123 23.8357 40.8192 24.7248 40.8192 25.8217C40.8192 26.9185 41.7123 27.8076 42.8139 27.8076Z" stroke="#818C58"/>
</svg>
