<svg width="165" height="23" viewBox="0 0 165 23" fill="none" xmlns="http://www.w3.org/2000/svg">
<path d="M24.0221 21.8557V1.00244H32.864V3.83849H27.025V10.0111H32.1967V12.6803H27.025L26.9532 18.7767H32.9321V21.8557H24.0221Z" fill="#3C4B04" stroke="#3C4B04"/>
<path d="M14.681 1.00244H11.5112V21.8557H14.5141V12.6282H18.3512V21.8557H21.1873L21.3541 1.00244H18.3512V9.97562H14.681V1.00244Z" fill="#3C4B04" stroke="#3C4B04"/>
<path d="M0.5 3.83873V1.00273L10.3429 1.00269V3.83873H7.00632L6.92759 21.7695H3.88697V3.83873H0.5Z" fill="#3C4B04" stroke="#3C4B04"/>
<path d="M42.2061 0.835693V21.5222H45.209V9.01018L48.2119 17.852H49.7133L52.7163 9.01018L52.5494 21.5222H55.7192V0.835693H52.7163L48.8792 11.6794L45.209 0.835693H42.2061Z" fill="#3C4B04" stroke="#3C4B04"/>
<path d="M96.0926 0.669067H92.9229V21.5224H95.9258V12.2948H99.7628V21.5224H102.599L102.766 0.669067H99.7628V9.64224H96.0926V0.669067Z" fill="#3C4B04" stroke="#3C4B04"/>
<path d="M69.5664 3.67206V0.835977L79.4093 0.83601V3.67206H76.0727L75.994 21.6028H72.9534V3.67206H69.5664Z" fill="#3C4B04" stroke="#3C4B04"/>
<path fill-rule="evenodd" clip-rule="evenodd" d="M58.7227 4.33943V21.5225H61.5587V17.185H65.229V21.5225H68.2319C68.2319 21.5225 68.2081 7.34224 68.0651 4.33943C67.9221 1.33662 64.7841 0.446815 63.5607 0.502424C60.0907 0.502424 58.7227 2.83805 58.7227 4.33943ZM61.5587 5.00672C61.5587 3.00481 65.229 3.00481 65.229 5.00672V14.1822H61.5587V5.00672Z" fill="#3C4B04" stroke="#3C4B04"/>
<path fill-rule="evenodd" clip-rule="evenodd" d="M105.601 4.5085V21.6916H108.437V17.3541H112.107V21.6916H115.11C115.11 21.6916 115.086 7.51131 114.943 4.5085C114.8 1.50568 111.663 0.615883 110.439 0.671492C106.969 0.671492 105.601 3.00712 105.601 4.5085ZM108.437 5.17579V14.3512H112.107V5.17579C112.107 3.17387 108.437 3.17387 108.437 5.17579Z" fill="#3C4B04"/>
<path d="M105.601 4.5085V21.6916M105.601 4.5085C105.601 3.00712 106.969 0.671492 110.439 0.671492C111.663 0.615883 114.8 1.50568 114.943 4.5085C115.086 7.51131 115.11 21.6916 115.11 21.6916H112.107V17.3541H108.437V21.6916H105.601M105.601 4.5085C105.601 6.00987 105.601 21.6916 105.601 21.6916M108.437 5.17579V14.3512M108.437 5.17579C108.437 3.17387 112.107 3.17387 112.107 5.17579M108.437 5.17579C108.437 7.1777 108.437 14.3512 108.437 14.3512M108.437 14.3512H112.107M112.107 14.3512V5.17579M112.107 14.3512C112.107 14.3512 112.107 7.1777 112.107 5.17579" stroke="#3C4B04"/>
<path d="M90.4189 6.67615L87.416 6.67491V5.17335C87.416 3.17156 83.9126 3.00476 83.9126 5.17335V17.3517C83.9126 19.3535 87.416 19.1869 87.416 17.3519V15.6836L90.4189 15.6835C90.6413 17.6298 90.1186 21.5558 86.2482 21.6893C83.5789 21.8573 80.9097 20.6895 80.9097 17.6854V4.67423C80.9097 1.67012 83.5789 0.502316 86.2482 0.670403C90.1186 0.803864 90.6413 4.72984 90.4189 6.67615Z" fill="#3C4B04"/>
<path d="M80.9097 17.6867V4.67423C80.9097 1.67012 83.5789 0.502316 86.2482 0.670403C90.1186 0.803864 90.6413 4.72984 90.4189 6.67615L87.416 6.67491V5.17335C87.416 3.17156 83.9126 3.00476 83.9126 5.17335V17.3517C83.9126 19.3535 87.416 19.1869 87.416 17.3519V15.6836L90.4189 15.6835C90.6413 17.6298 90.1186 21.5558 86.2482 21.6893C83.5789 21.8573 80.9097 20.6895 80.9097 17.6854" stroke="#3C4B04"/>
<path d="M154.889 21.5226V0.669312H163.731V3.50536H157.892V9.67793H163.063V12.3472H157.892L157.82 18.4436H163.799V21.5226H154.889Z" fill="#3C4B04" stroke="#3C4B04"/>
<path fill-rule="evenodd" clip-rule="evenodd" d="M124.286 21.3557V0.502451H130.197C135.033 0.504959 135.296 9.34438 131.96 10.3452V10.512C135.63 12.1803 134.702 21.3557 130.197 21.3557H124.286ZM127.289 3.33849V9.01058H129.291C131.627 9.01058 131.96 3.33849 129.291 3.33849H127.289ZM127.289 11.6798V18.3529H129.458C131.793 18.3529 131.96 11.6798 129.291 11.6798H127.289Z" fill="#3C4B04"/>
<path d="M130.197 0.502451H124.286V21.3557H130.197C134.702 21.3557 135.63 12.1803 131.96 10.512V10.3452M130.197 0.502451C135.033 0.504959 135.296 9.34438 131.96 10.3452M130.197 0.502451C135.035 0.502451 135.297 9.34424 131.96 10.3452M130.197 0.502451L130.031 0.502441M127.289 9.01058V3.33849H129.291C131.96 3.33849 131.627 9.01058 129.291 9.01058H127.289ZM127.289 18.3529V11.6798H129.291C131.96 11.6798 131.793 18.3529 129.458 18.3529H127.289Z" stroke="#3C4B04"/>
<path d="M139.373 0.669312H136.537L136.703 21.1889H139.373V0.669312Z" fill="#3C4B04" stroke="#3C4B04"/>
<path d="M145.378 0.669312H142.375L142.375 21.3558H145.378V15.0164L147.046 12.1803L150.216 21.3558H153.553L148.714 8.8438L152.718 0.669312H149.715L145.378 10.0584V0.669312Z" fill="#3C4B04" stroke="#3C4B04"/>
</svg>
