<svg width="116" height="17" viewBox="0 0 116 17" fill="none" xmlns="http://www.w3.org/2000/svg">
<path d="M17.0665 15.5394V0.854004H23.2931V2.85122H19.1812V7.19809H22.8232V9.07782H19.1812L19.1307 13.3711H23.3411V15.5394H17.0665Z" fill="#3C4B04" stroke="#3C4B04"/>
<path d="M10.4861 0.854004H8.25391V15.5394H10.3686V9.04113H13.0708V15.5394H15.068L15.1855 0.854004H13.0708V7.17313H10.4861V0.854004Z" fill="#3C4B04" stroke="#3C4B04"/>
<path d="M0.5 2.85122V0.854032L7.43158 0.854004V2.85122H5.08189L5.02645 15.4785H2.88518V2.85122H0.5Z" fill="#3C4B04" stroke="#3C4B04"/>
<path d="M29.8711 0.736328V15.3042H31.9858V6.493L34.1005 12.7196H35.1579L37.2726 6.493L37.1551 15.3042H39.3873V0.736328H37.2726L34.5705 8.37273L31.9858 0.736328H29.8711Z" fill="#3C4B04" stroke="#3C4B04"/>
<path d="M67.8201 0.619141H65.5879V15.3045H67.7026V8.80626H70.4048V15.3045H72.402L72.5195 0.619141H70.4048V6.93826H67.8201V0.619141Z" fill="#3C4B04" stroke="#3C4B04"/>
<path d="M49.1387 2.73408V0.736844L56.0703 0.736867V2.73408H53.7206L53.6651 15.3614H51.5239V2.73408H49.1387Z" fill="#3C4B04" stroke="#3C4B04"/>
<path fill-rule="evenodd" clip-rule="evenodd" d="M41.5039 3.20382V15.3046H43.5011V12.25H46.0858V15.3046H48.2005C48.2005 15.3046 48.1837 5.31847 48.083 3.20382C47.9823 1.08917 45.7725 0.462546 44.911 0.501707C42.4673 0.501707 41.5039 2.14651 41.5039 3.20382ZM43.5011 3.67374C43.5011 2.26394 46.0858 2.26394 46.0858 3.67374V10.1353H43.5011V3.67374Z" fill="#3C4B04" stroke="#3C4B04"/>
<path fill-rule="evenodd" clip-rule="evenodd" d="M74.5156 3.32296V15.4237H76.5129V12.3691H79.0975V15.4237H81.2122C81.2122 15.4237 81.1955 5.43761 81.0948 3.32296C80.9941 1.20831 78.7842 0.581687 77.9227 0.620848C75.479 0.620848 74.5156 2.26565 74.5156 3.32296ZM76.5129 3.79288V10.2545H79.0975V3.79288C79.0975 2.38309 76.5129 2.38309 76.5129 3.79288Z" fill="#3C4B04"/>
<path d="M74.5156 3.32296V15.4237M74.5156 3.32296C74.5156 2.26565 75.479 0.620848 77.9227 0.620848C78.7842 0.581687 80.9941 1.20831 81.0948 3.32296C81.1955 5.43761 81.2122 15.4237 81.2122 15.4237H79.0975V12.3691H76.5129V15.4237H74.5156M74.5156 3.32296C74.5156 4.38026 74.5156 15.4237 74.5156 15.4237M76.5129 3.79288V10.2545M76.5129 3.79288C76.5129 2.38309 79.0975 2.38309 79.0975 3.79288M76.5129 3.79288C76.5129 5.20268 76.5129 10.2545 76.5129 10.2545M76.5129 10.2545H79.0975M79.0975 10.2545V3.79288M79.0975 10.2545C79.0975 10.2545 79.0975 5.20268 79.0975 3.79288" stroke="#3C4B04"/>
<path d="M63.8255 4.84936L61.7108 4.84849V3.79105C61.7108 2.38134 59.2436 2.26388 59.2436 3.79105V12.3673C59.2436 13.777 61.7108 13.6597 61.7108 12.3675V11.1926L63.8255 11.1926C63.9822 12.5632 63.614 15.328 60.8884 15.422C59.0087 15.5403 57.1289 14.7179 57.1289 12.6024V3.43956C57.1289 1.324 59.0087 0.5016 60.8884 0.619971C63.614 0.713957 63.9822 3.47872 63.8255 4.84936Z" fill="#3C4B04"/>
<path d="M57.1289 12.6032V3.43956C57.1289 1.324 59.0087 0.5016 60.8884 0.619971C63.614 0.713957 63.9822 3.47872 63.8255 4.84936L61.7108 4.84849V3.79105C61.7108 2.38134 59.2436 2.26388 59.2436 3.79105V12.3673C59.2436 13.777 61.7108 13.6597 61.7108 12.3675V11.1926L63.8255 11.1926C63.9822 12.5632 63.614 15.328 60.8884 15.422C59.0087 15.5403 57.1289 14.7179 57.1289 12.6024" stroke="#3C4B04"/>
<path d="M109.225 15.3045V0.619141H115.451V2.61635H111.339V6.96323H114.981V8.84295H111.339L111.289 13.1362H115.499V15.3045H109.225Z" fill="#3C4B04" stroke="#3C4B04"/>
<path fill-rule="evenodd" clip-rule="evenodd" d="M87.6738 15.1873V0.50196H91.8367C95.2424 0.503726 95.4275 6.72866 93.0781 7.43345V7.55094C95.6628 8.72577 95.0087 15.1873 91.8367 15.1873H87.6738ZM89.7885 2.49917V6.49359H91.1984C92.8431 6.49359 93.0781 2.49917 91.1984 2.49917H89.7885ZM89.7885 8.37332V13.0726H91.3158C92.9606 13.0726 93.0781 8.37332 91.1984 8.37332H89.7885Z" fill="#3C4B04"/>
<path d="M91.8367 0.50196H87.6738V15.1873H91.8367C95.0087 15.1873 95.6628 8.72577 93.0781 7.55094V7.43345M91.8367 0.50196C95.2424 0.503726 95.4275 6.72866 93.0781 7.43345M91.8367 0.50196C95.2437 0.50196 95.4278 6.72856 93.0781 7.43345M91.8367 0.50196L91.7192 0.501953M89.7885 6.49359V2.49917H91.1984C93.0781 2.49917 92.8431 6.49359 91.1984 6.49359H89.7885ZM89.7885 13.0726V8.37332H91.1984C93.0781 8.37332 92.9606 13.0726 91.3158 13.0726H89.7885Z" stroke="#3C4B04"/>
<path d="M98.3 0.619141H96.3027L96.4202 15.0696H98.3V0.619141Z" fill="#3C4B04" stroke="#3C4B04"/>
<path d="M102.527 0.619141H100.412L100.412 15.187H102.527V10.7227L103.702 8.72547L105.934 15.187H108.284L104.877 6.37581L107.696 0.619141H105.581L102.527 7.23115V0.619141Z" fill="#3C4B04" stroke="#3C4B04"/>
</svg>
