<svg width="50" height="50" viewBox="0 0 50 50" fill="none" xmlns="http://www.w3.org/2000/svg">
<circle cx="25" cy="25" r="25" fill="#F4DFDF"/>
<path d="M40.625 23.5C41.4534 23.5 42.125 24.1716 42.125 25C42.125 25.8284 41.4534 26.5 40.625 26.5L40.625 25L40.625 23.5ZM8.31432 26.0606C7.72854 25.4748 7.72857 24.5251 8.31437 23.9393L17.8605 14.3936C18.4463 13.8078 19.3961 13.8078 19.9818 14.3936C20.5676 14.9794 20.5676 15.9292 19.9818 16.515L11.4963 25L19.9814 33.4855C20.5672 34.0713 20.5672 35.0211 19.9814 35.6068C19.3956 36.1926 18.4458 36.1926 17.86 35.6068L8.31432 26.0606ZM40.625 25L40.625 26.5C29.6875 26.5001 22.8125 26.5003 9.37497 26.5L9.375 25L9.37503 23.5C22.8125 23.5003 29.6875 23.5001 40.625 23.5L40.625 25Z" fill="white"/>
</svg>
