<svg width="31" height="57" viewBox="0 0 31 57" fill="none" xmlns="http://www.w3.org/2000/svg">
<path d="M1.40028 26.5034C3.12555 38.8584 16.4123 54.7 16.4123 54.7C16.4123 54.7 27.5717 38.4794 29.0497 26.5034C29.6651 21.5165 29.3236 13.6368 29.3236 13.6368C29.5974 -4.15696 1.12618 -2.24037 1.12618 13.6368C1.12618 13.6368 0.705369 21.527 1.40028 26.5034Z" fill="#F2B3E1" stroke="white" stroke-width="2"/>
<path d="M9.68054 21.6864C-2.2536 26.3101 29.6127 27.2474 21.2399 22.2487" stroke="#3C4B04"/>
<path d="M7.00636 23.8036C5.59654 31.2801 12.9 36.2519 18.147 33.371M22.5021 24.1785C22.1069 29.3952 20.5739 32.0386 18.147 33.371M11.6172 33.4575V35.1205C12.8044 35.7662 15.7661 36.6701 18.1154 35.1205L18.147 33.371" stroke="#3C4B04"/>
<path d="M16.9281 7.56706L20.6248 8.3785C20.9172 8.46172 21.3516 9.01516 20.7501 10.5631C20.4159 11.1665 19.7226 12.6978 19.6223 13.9961C19.6641 14.5579 18.8329 15.477 16.9281 15.1275C15.0788 14.5531 14.9331 13.4345 15.2308 12.9563C15.7446 11.7598 15.8412 10.0816 15.8252 9.39205C16.0109 7.74174 16.6305 7.50465 16.9281 7.56664" stroke="#3C4B04"/>
<path d="M15.4912 12.9393C16.1577 13.3559 17.8781 14.1265 19.4276 13.8766" stroke="#3C4B04"/>
<path d="M15.0661 14.189C13.4208 16.4175 10.2799 21.287 10.8798 22.9366" stroke="#3C4B04" stroke-linecap="round"/>
<path d="M16.2413 15.6885C15.2416 18.3752 13.1172 21.8743 13.617 23.4363" stroke="#3C4B04" stroke-linecap="round"/>
<path d="M15.1783 14.6886C13.6579 16.9172 10.817 21.6992 11.6168 22.9988" stroke="#3C4B04" stroke-linecap="round"/>
<path d="M16.1304 15.0634C14.61 17.2919 11.7691 22.0739 12.5689 23.3736" stroke="#3C4B04" stroke-linecap="round"/>
<path d="M15.3661 15.3132C14.1789 17.0628 11.6171 21.3741 11.9295 23.561" stroke="#3C4B04" stroke-linecap="round"/>
<path d="M16.8032 15.3761C15.741 17.2506 14.4913 21.5619 14.3301 23.5613" stroke="#3C4B04" stroke-linecap="round"/>
<path d="M16.9906 15.5011C16.4283 17.6255 14.9287 21.9368 14.9287 23.9988" stroke="#3C4B04" stroke-linecap="round"/>
<path d="M17.6158 15.5635C17.3867 18.3752 16.7785 24.0736 16.1787 24.3736" stroke="#3C4B04" stroke-linecap="round"/>
<path d="M17.4282 16.0632C17.0533 18.1043 16.1786 22.424 15.6787 23.3737" stroke="#3C4B04" stroke-linecap="round"/>
<path d="M18.0533 15.8759C17.9908 18.6043 17.6159 24.1611 16.6162 24.561" stroke="#3C4B04" stroke-linecap="round"/>
<path d="M18.49 16.0632C18.5108 18.7292 18.365 24.1735 17.6152 24.6234" stroke="#3C4B04" stroke-linecap="round"/>
<path d="M18.8025 15.6885C18.8234 18.3544 18.8025 24.2986 18.0527 24.7485" stroke="#3C4B04" stroke-linecap="round"/>
<path d="M19.1776 15.1884C19.365 17.8751 19.4275 24.2359 18.6777 24.6857" stroke="#3C4B04" stroke-linecap="round"/>
<path d="M19.4901 14.876C19.6151 17.6252 20.5524 23.936 19.1777 24.8107" stroke="#3C4B04" stroke-linecap="round"/>
</svg>
